<svg xmlns="http://www.w3.org/2000/svg" width="1200" height="630" viewBox="0 0 1200 630"><defs><linearGradient id="b" x1="0" y1="0" x2="1" y2="1"><stop stop-color="#eff6ff"/><stop offset="1" stop-color="#f5f3ff"/></linearGradient><linearGradient id="a" x1="0" y1="0" x2="1" y2="1"><stop stop-color="#0f172a"/><stop offset=".55" stop-color="#1d4ed8"/><stop offset="1" stop-color="#7c3aed"/></linearGradient><filter id="s"><feDropShadow dx="0" dy="16" stdDeviation="24" flood-color="#0f172a" flood-opacity=".18"/></filter></defs><rect width="1200" height="630" fill="url(#b)"/><circle cx="1080" cy="80" r="190" fill="#7c3aed" opacity=".07"/><g filter="url(#s)"><rect x="64" y="64" width="1072" height="502" rx="38" fill="#fff"/></g><rect x="64" y="64" width="18" height="502" rx="9" fill="url(#a)"/><text x="120" y="150" font-family="Arial" font-size="27" font-weight="700" fill="#1d4ed8" letter-spacing="4">PERSONAL PORTFOLIO</text><text x="120" y="245" font-family="Arial" font-size="64" font-weight="800" fill="#0f172a">S. A. MUSA FOLIO</text><text x="120" y="309" font-family="Arial" font-size="34" font-weight="600" fill="#374151">Creative Work &amp; Professional Profile</text><text x="120" y="368" font-family="Arial" font-size="24" fill="#6b7280">About • Services • Portfolio • Blog • Contact</text><g font-family="Arial" font-size="20" font-weight="700"><rect x="120" y="420" width="116" height="46" rx="23" fill="#fff1ed"/><text x="145" y="450" fill="#e34f26">HTML5</text><rect x="250" y="420" width="104" height="46" rx="23" fill="#edf6ff"/><text x="277" y="450" fill="#1572b6">CSS3</text><rect x="368" y="420" width="144" height="46" rx="23" fill="#f2ecff"/><text x="392" y="450" fill="#7952b3">Bootstrap</text><rect x="526" y="420" width="118" height="46" rx="23" fill="#eef2ff"/><text x="550" y="450" fill="#4f46e5">Swiper</text></g><g transform="translate(835 145)"><rect width="220" height="300" rx="28" fill="url(#a)"/><circle cx="110" cy="82" r="52" fill="#dbeafe"/><circle cx="110" cy="72" r="24" fill="#64748b"/><path d="M68 126c16-34 68-34 84 0" fill="#64748b"/><rect x="38" y="160" width="144" height="16" rx="8" fill="#fff"/><rect x="54" y="194" width="112" height="10" rx="5" fill="#c7d2fe"/><rect x="44" y="224" width="58" height="46" rx="12" fill="#dbeafe"/><rect x="118" y="224" width="58" height="46" rx="12" fill="#ede9fe"/></g><text x="120" y="525" font-family="Arial" font-size="22" font-weight="700" fill="#0f172a">MUSA</text><text x="202" y="525" font-family="Arial" font-size="20" fill="#6b7280">• Personal Brand • Projects • Services</text></svg>